<svg width="70" height="70" viewBox="0 0 70 70" fill="none" xmlns="http://www.w3.org/2000/svg">
<g clip-path="url(#clip0_403_154)">
<path d="M43.4 4.375H20.2526C19.4854 4.375 18.7497 4.68221 18.2072 5.22906C17.6647 5.7759 17.36 6.51758 17.36 7.29094V19.6875L43.4 35L56.42 40.5387L69.44 35V19.6875L43.4 4.375Z" fill="#21A366"/>
<path d="M17.36 19.6875H43.4V35H17.36V19.6875Z" fill="#107C41"/>
<path d="M66.5474 4.375H43.4V19.6875H69.44V7.29094C69.44 6.51758 69.1353 5.7759 68.5928 5.22906C68.0503 4.68221 67.3146 4.375 66.5474 4.375V4.375Z" fill="#33C481"/>
<path d="M43.4 35H17.36V62.7091C17.36 63.4824 17.6647 64.2241 18.2072 64.7709C18.7497 65.3178 19.4854 65.625 20.2526 65.625H66.5474C67.3145 65.625 68.0503 65.3178 68.5928 64.7709C69.1352 64.2241 69.44 63.4824 69.44 62.7091V50.3125L43.4 35Z" fill="#185C37"/>
<path d="M43.4 35H69.44V50.3125H43.4V35Z" fill="#107C41"/>
<path opacity="0.1" d="M36.1674 15.3125H17.36V56.875H36.1674C36.9338 56.8727 37.6683 56.5647 38.2102 56.0184C38.7522 55.4721 39.0577 54.7317 39.06 53.9591V18.2284C39.0577 17.4558 38.7522 16.7155 38.2102 16.1691C37.6683 15.6228 36.9338 15.3148 36.1674 15.3125V15.3125Z" fill="black"/>
<path opacity="0.2" d="M33.9974 17.5H17.36V59.0625H33.9974C34.7638 59.0602 35.4983 58.7522 36.0402 58.2059C36.5822 57.6596 36.8877 56.9192 36.89 56.1466V20.4159C36.8877 19.6433 36.5822 18.903 36.0402 18.3566C35.4983 17.8103 34.7638 17.5023 33.9974 17.5V17.5Z" fill="black"/>
<path opacity="0.2" d="M33.9974 17.5H17.36V54.6875H33.9974C34.7638 54.6852 35.4983 54.3772 36.0402 53.8309C36.5822 53.2845 36.8877 52.5442 36.89 51.7716V20.4159C36.8877 19.6433 36.5822 18.903 36.0402 18.3566C35.4983 17.8103 34.7638 17.5023 33.9974 17.5V17.5Z" fill="black"/>
<path opacity="0.2" d="M31.8274 17.5H17.36V54.6875H31.8274C32.5938 54.6852 33.3283 54.3772 33.8702 53.8309C34.4122 53.2845 34.7177 52.5442 34.72 51.7716V20.4159C34.7177 19.6433 34.4122 18.903 33.8702 18.3566C33.3283 17.8103 32.5938 17.5023 31.8274 17.5V17.5Z" fill="black"/>
<path d="M2.89261 17.5H31.8274C32.5946 17.5 33.3303 17.8072 33.8728 18.3541C34.4152 18.9009 34.72 19.6426 34.72 20.4159V49.5841C34.72 50.3574 34.4152 51.0991 33.8728 51.6459C33.3303 52.1928 32.5946 52.5 31.8274 52.5H2.89261C2.12544 52.5 1.3897 52.1928 0.847226 51.6459C0.304756 51.0991 0 50.3574 0 49.5841L0 20.4159C0 19.6426 0.304756 18.9009 0.847226 18.3541C1.3897 17.8072 2.12544 17.5 2.89261 17.5V17.5Z" fill="#107C41"/>
<path d="M7.66663 45.9375L14.6887 34.9694L8.25687 24.0625H13.4323L16.9434 31.0341C17.266 31.6947 17.488 32.1876 17.6096 32.5128H17.6551C17.8866 31.9849 18.1289 31.4716 18.3821 30.9728L22.134 24.0625H26.8841L20.2873 34.9081L27.0512 45.9375H21.9951L17.9394 38.2812C17.7483 37.9551 17.5864 37.6125 17.4555 37.2575H17.3947C17.2764 37.6047 17.1191 37.9372 16.926 38.2484L12.7531 45.9375H7.66663Z" fill="white"/>
</g>
<defs>
<clipPath id="clip0_403_154">
<rect width="70" height="70" fill="white"/>
</clipPath>
</defs>
</svg>
