<svg width="70" height="70" viewBox="0 0 70 70" fill="none" xmlns="http://www.w3.org/2000/svg">
<path d="M5.28123 29.507C5.18521 29.507 5.08919 29.4109 5.18521 29.3149L5.85737 28.3547C5.95339 28.2587 6.04941 28.1627 6.24145 28.1627H18.3402C18.4362 28.1627 18.5323 28.2587 18.4362 28.3547L17.8601 29.2189C17.7641 29.3149 17.6681 29.4109 17.476 29.4109L5.28123 29.507ZM0.19207 32.5797C0.0960483 32.5797 2.59826e-05 32.4836 0.0960479 32.3876L0.768202 31.4274C0.864224 31.3314 0.960246 31.2354 1.15229 31.2354H16.6118C16.7078 31.2354 16.8039 31.3314 16.8039 31.4274L16.5158 32.3876C16.5158 32.4836 16.3238 32.5797 16.2277 32.5797H0.19207ZM8.35394 35.7484C8.25791 35.7484 8.16189 35.6524 8.25791 35.5563L8.73802 34.6921C8.83405 34.5961 8.93007 34.5001 9.12211 34.5001H15.8436C15.9397 34.5001 16.0357 34.5961 16.0357 34.6921L15.9397 35.4603C15.9397 35.5563 15.8436 35.6524 15.7476 35.6524L8.35394 35.7484ZM43.498 28.8348L37.8327 30.2751C37.3526 30.3712 37.2565 30.4672 36.8725 29.891C36.3923 29.3149 36.0083 28.9308 35.2401 28.6428C33.1276 27.5865 31.0151 27.8746 29.0947 29.1229C26.7901 30.5632 25.6379 32.7717 25.6379 35.5563C25.6379 38.245 27.5583 40.4535 30.2469 40.8375C32.5515 41.1256 34.4719 40.3574 36.0083 38.629C36.2963 38.245 36.5844 37.8609 36.9685 37.3808H30.439C29.7668 37.3808 29.5748 36.9006 29.7668 36.3245C30.2469 35.2683 31.0151 33.5399 31.4952 32.6757C31.5912 32.4836 31.8793 32.0996 32.3594 32.0996H44.6502C44.5542 33.0598 44.5542 33.924 44.4582 34.8842C44.0741 37.2847 43.2099 39.5893 41.6736 41.5097C39.273 44.6784 36.1043 46.6949 32.0714 47.271C28.7106 47.7511 25.6379 47.079 22.9493 45.0625C20.4527 43.1421 19.0124 40.6455 18.6283 37.5728C18.1482 33.924 19.3004 30.5632 21.5089 27.6825C23.9095 24.5138 27.0782 22.4974 31.0151 21.8252C34.1838 21.2491 37.2565 21.6332 39.9452 23.4576C41.7696 24.6098 43.0179 26.2422 43.8821 28.2587C43.9781 28.6428 43.8821 28.7388 43.498 28.8348V28.8348Z" fill="#00ACD7"/>
<path d="M54.6365 47.5592C51.5638 47.4632 48.7791 46.599 46.3786 44.5825C44.3621 42.8541 43.1138 40.6456 42.7298 38.053C42.1536 34.2121 43.2099 30.8514 45.5144 27.8747C48.011 24.6099 50.9876 22.9776 55.0206 22.2094C58.4774 21.6333 61.7421 21.9213 64.6228 23.9378C67.3114 25.7622 68.9437 28.2588 69.4239 31.5235C70 36.1326 68.6557 39.7814 65.583 42.9501C63.3745 45.2547 60.5898 46.599 57.5171 47.2711C56.4609 47.4632 55.5007 47.4632 54.6365 47.5592V47.5592ZM62.7023 33.9241C62.7023 33.444 62.7023 33.1559 62.6063 32.7718C62.0302 29.411 58.9575 27.4906 55.6927 28.2588C52.524 28.9309 50.5075 30.9474 49.7394 34.1161C49.1632 36.7087 50.4115 39.3973 52.8121 40.5496C54.6365 41.3178 56.5569 41.2217 58.2853 40.3575C61.0699 39.0132 62.5103 36.8047 62.7023 33.9241Z" fill="#00ACD7"/>
</svg>
