<svg width="48" height="48" viewBox="0 0 48 48" fill="none" xmlns="http://www.w3.org/2000/svg">
<mask id="mask0" mask-type="alpha" maskUnits="userSpaceOnUse" x="0" y="0" width="48" height="48">
<path d="M48 24C48 37.2548 37.2548 48 24 48C10.7452 48 0 37.2548 0 24C0 10.7452 10.7452 0 24 0C37.2548 0 48 10.7452 48 24Z" fill="#E8EFFF"/>
</mask>
<g mask="url(#mask0)">
<path d="M48 24C48 37.2548 37.2548 48 24 48C10.7452 48 0 37.2548 0 24C0 10.7452 10.7452 0 24 0C37.2548 0 48 10.7452 48 24Z" fill="#E8EFFF"/>
<circle cx="9.93972" cy="23.1639" r="2.78964" fill="#B7C8EC"/>
<circle cx="9.93973" cy="35.1808" r="7.93973" fill="#B7C8EC"/>
<circle cx="37.0603" cy="23.1639" r="2.78964" fill="#B7C8EC"/>
<circle cx="37.0603" cy="35.1808" r="7.93973" fill="#B7C8EC"/>
<circle cx="23.434" cy="45.3077" r="17.9345" fill="#E8EFFF"/>
<circle cx="23.434" cy="21.6866" r="5.68656" fill="#F4A42B"/>
<circle cx="23.434" cy="46.1825" r="16.1848" fill="#506FFF"/>
<path d="M23.5245 33.4635C23.6741 33.0029 24.3259 33.0029 24.4755 33.4635L25.4593 36.4914C25.5263 36.6974 25.7183 36.8369 25.9349 36.8369H29.1186C29.6029 36.8369 29.8043 37.4567 29.4124 37.7414L26.8368 39.6127C26.6615 39.74 26.5882 39.9657 26.6552 40.1717L27.639 43.1996C27.7886 43.6602 27.2614 44.0433 26.8695 43.7586L24.2939 41.8873C24.1186 41.76 23.8814 41.76 23.7061 41.8873L21.1305 43.7586C20.7386 44.0433 20.2114 43.6602 20.361 43.1996L21.3448 40.1717C21.4118 39.9657 21.3385 39.74 21.1632 39.6127L18.5876 37.7414C18.1957 37.4567 18.3971 36.8369 18.8814 36.8369H22.0651C22.2817 36.8369 22.4737 36.6974 22.5407 36.4914L23.5245 33.4635Z" fill="white"/>
</g>
</svg>
