<svg width="70" height="70" viewBox="0 0 70 70" fill="none" xmlns="http://www.w3.org/2000/svg">
<g clip-path="url(#clip0_403_180)">
<path d="M34.7004 0.0197754C16.9745 0.0197754 18.0813 7.70675 18.0813 7.70675L18.101 15.6707H35.0164V18.0617H11.3824C11.3824 18.0617 0.0396729 16.7753 0.0396729 34.6605C0.0396729 52.5463 9.93991 51.912 9.93991 51.912H15.8483V43.6123C15.8483 43.6123 15.5298 33.712 25.5905 33.712H42.3676C42.3676 33.712 51.7935 33.8643 51.7935 24.6022V9.28789C51.7935 9.28789 53.2251 0.0197754 34.7004 0.0197754ZM25.3732 5.37536C25.7729 5.375 26.1688 5.45347 26.5381 5.60627C26.9075 5.75907 27.2431 5.98321 27.5258 6.26586C27.8084 6.5485 28.0325 6.88411 28.1854 7.25348C28.3382 7.62284 28.4166 8.01871 28.4163 8.41844C28.4166 8.81816 28.3382 9.21403 28.1854 9.5834C28.0325 9.95276 27.8084 10.2884 27.5258 10.571C27.2431 10.8537 26.9075 11.0778 26.5381 11.2306C26.1688 11.3834 25.7729 11.4619 25.3732 11.4615C24.9735 11.4619 24.5776 11.3834 24.2082 11.2306C23.8389 11.0778 23.5033 10.8537 23.2206 10.571C22.938 10.2884 22.7138 9.95276 22.561 9.5834C22.4082 9.21403 22.3298 8.81816 22.3301 8.41844C22.3298 8.01871 22.4082 7.62284 22.561 7.25348C22.7138 6.88411 22.938 6.5485 23.2206 6.26586C23.5033 5.98321 23.8389 5.75907 24.2082 5.60627C24.5776 5.45347 24.9735 5.375 25.3732 5.37536V5.37536Z" fill="url(#paint0_linear_403_180)"/>
<path d="M35.2037 69.4811C52.9295 69.4811 51.8227 61.7942 51.8227 61.7942L51.803 53.8305H34.8873V51.4395H58.5213C58.5213 51.4395 69.8641 52.7259 69.8641 34.8402C69.8641 16.9546 59.9638 17.589 59.9638 17.589H54.0554V25.8884C54.0554 25.8884 54.3739 35.7886 44.3132 35.7886H27.5361C27.5361 35.7886 18.1102 35.6363 18.1102 44.8987V60.2133C18.1102 60.2133 16.6789 69.4811 35.2034 69.4811H35.2037ZM44.5308 64.1261C44.1311 64.1265 43.7352 64.048 43.3659 63.8952C42.9965 63.7424 42.6609 63.5183 42.3783 63.2356C42.0956 62.953 41.8715 62.6174 41.7187 62.248C41.5659 61.8786 41.4874 61.4828 41.4878 61.083C41.4874 60.6833 41.5658 60.2874 41.7186 59.918C41.8714 59.5486 42.0955 59.2129 42.3782 58.9303C42.6608 58.6476 42.9964 58.4234 43.3658 58.2706C43.7352 58.1178 44.1311 58.0393 44.5308 58.0397C44.9306 58.0393 45.3264 58.1178 45.6958 58.2706C46.0652 58.4234 46.4008 58.6475 46.6834 58.9302C46.9661 59.2128 47.1902 59.5484 47.343 59.9178C47.4958 60.2872 47.5743 60.683 47.5739 61.0828C47.5743 61.4825 47.4958 61.8783 47.343 62.2477C47.1902 62.6171 46.9661 62.9527 46.6834 63.2353C46.4008 63.518 46.0652 63.7421 45.6958 63.8949C45.3264 64.0477 44.9306 64.1262 44.5308 64.1258V64.1261Z" fill="url(#paint1_linear_403_180)"/>
</g>
<defs>
<linearGradient id="paint0_linear_403_180" x1="6.74978" y1="6.26741" x2="41.3527" y2="40.5251" gradientUnits="userSpaceOnUse">
<stop stop-color="#387EB8"/>
<stop offset="1" stop-color="#366994"/>
</linearGradient>
<linearGradient id="paint1_linear_403_180" x1="27.989" y1="28.2656" x2="65.1485" y2="63.3937" gradientUnits="userSpaceOnUse">
<stop stop-color="#FFE052"/>
<stop offset="1" stop-color="#FFC331"/>
</linearGradient>
<clipPath id="clip0_403_180">
<rect width="70" height="69.72" fill="white"/>
</clipPath>
</defs>
</svg>
