<svg width="48" height="48" viewBox="0 0 48 48" fill="none" xmlns="http://www.w3.org/2000/svg">
<mask id="mask0" mask-type="alpha" maskUnits="userSpaceOnUse" x="0" y="0" width="48" height="48">
<path d="M48 24C48 37.2548 37.2548 48 24 48C10.7452 48 0 37.2548 0 24C0 10.7452 10.7452 0 24 0C37.2548 0 48 10.7452 48 24Z" fill="#E8EFFF"/>
</mask>
<g mask="url(#mask0)">
<path d="M48 24C48 37.2548 37.2548 48 24 48C10.7452 48 0 37.2548 0 24C0 10.7452 10.7452 0 24 0C37.2548 0 48 10.7452 48 24Z" fill="#E8EFFF"/>
<path d="M35.6803 28.2633C37.4221 38.192 30.7853 47.6528 20.8566 49.3946C10.9278 51.1364 1.46702 44.4996 -0.274783 34.5709C-2.01658 24.6422 4.62023 15.1813 14.5489 13.4395C24.4777 11.6977 33.9385 18.3346 35.6803 28.2633Z" fill="#3D58FF"/>
<mask id="mask1" mask-type="alpha" maskUnits="userSpaceOnUse" x="-1" y="13" width="37" height="37">
<path d="M35.6803 28.2633C37.4221 38.192 30.7853 47.6528 20.8566 49.3946C10.9278 51.1364 1.46702 44.4996 -0.274783 34.5709C-2.01658 24.6422 4.62023 15.1813 14.5489 13.4395C24.4777 11.6977 33.9385 18.3346 35.6803 28.2633Z" fill="#3D58FF"/>
</mask>
<g mask="url(#mask1)">
<path d="M50.4222 9.37234C49.9451 6.65245 47.3534 4.83435 44.6335 5.3115L24.0596 8.92079C21.3397 9.39794 19.5216 11.9897 19.9987 14.7095L21.8188 25.0847C22.296 27.8046 24.8877 29.6227 27.6076 29.1455L39.7458 27.0161C39.8806 26.9925 40.0189 26.9967 40.152 27.0287L47.7592 28.8552C48.4591 29.0232 49.102 28.419 48.9776 27.71L48.7161 26.2194C48.6431 25.8031 48.9214 25.4064 49.3376 25.3334C51.419 24.9683 52.8103 22.985 52.4452 20.9036L50.4222 9.37234Z" fill="#3146CC"/>
</g>
<path d="M15.4063 23.7422C9.40994 24.7942 8.08184 32.7915 11.5731 35.4861C13.22 36.7571 14.2559 37.9453 14.8635 38.8478C15.3588 39.5836 16.2498 40.1294 17.1234 39.9762L19.3248 39.59C20.1955 39.4372 20.8547 38.6268 21.0788 37.7717C21.3503 36.7358 21.9187 35.2768 23.008 33.48C25.3491 29.6185 21.4026 22.6903 15.4063 23.7422Z" fill="white"/>
<path fill-rule="evenodd" clip-rule="evenodd" d="M15.1453 25.6264C15.2807 25.9055 15.1643 26.2415 14.8853 26.3769C14.0576 26.7787 13.4685 27.3226 13.0623 28.0145C12.652 28.7134 12.4104 29.5942 12.332 30.6912C12.3099 31.0006 12.0412 31.2335 11.7318 31.2114C11.4225 31.1893 11.1896 30.9205 11.2117 30.6112C11.2983 29.3985 11.5711 28.336 12.0937 27.4458C12.6205 26.5485 13.383 25.8576 14.3948 25.3665C14.6738 25.231 15.0098 25.3474 15.1453 25.6264Z" fill="#3D58FF"/>
<path d="M15.9737 41.603C15.8934 41.1447 16.1997 40.7081 16.6579 40.6277L19.9768 40.0454C20.4351 39.965 20.8718 40.2713 20.9521 40.7296C21.0325 41.1878 20.7262 41.6245 20.268 41.7049L16.949 42.2871C16.4908 42.3675 16.0541 42.0612 15.9737 41.603Z" fill="white"/>
<path d="M17.2256 42.2391C17.172 41.9336 17.3762 41.6425 17.6817 41.5889L19.3412 41.2978C19.6467 41.2442 19.9378 41.4484 19.9914 41.7539L20.0884 42.3071C20.142 42.6126 19.9378 42.9037 19.6323 42.9572L17.9728 43.2484C17.6673 43.302 17.3762 43.0978 17.3226 42.7923L17.2256 42.2391Z" fill="white"/>
<path fill-rule="evenodd" clip-rule="evenodd" d="M14.7295 17.1767C15.0015 17.129 15.2607 17.3108 15.3084 17.5828L15.9553 21.2705C16.003 21.5425 15.8212 21.8016 15.5492 21.8494C15.2773 21.8971 15.0181 21.7153 14.9704 21.4433L14.3234 17.7556C14.2757 17.4836 14.4575 17.2244 14.7295 17.1767ZM22.2551 17.8423C22.5079 17.9535 22.6227 18.2485 22.5115 18.5013L21.1529 21.5906C21.0417 21.8433 20.7466 21.9581 20.4939 21.847C20.2411 21.7358 20.1263 21.4407 20.2375 21.188L21.5961 18.0987C21.7073 17.846 22.0023 17.7312 22.2551 17.8423ZM7.9307 20.8564C8.11328 20.6492 8.42923 20.6293 8.6364 20.8119L10.8846 22.7932C11.0918 22.9758 11.1117 23.2918 10.9291 23.4989C10.7465 23.7061 10.4306 23.726 10.2234 23.5434L7.97522 21.5621C7.76805 21.3795 7.74812 21.0636 7.9307 20.8564ZM27.8607 21.7863C28.0345 22.0009 28.0014 22.3157 27.7868 22.4895L24.0425 25.5221C23.8279 25.6959 23.513 25.6629 23.3392 25.4483C23.1654 25.2337 23.1985 24.9188 23.4131 24.745L27.1574 21.7124C27.372 21.5386 27.6869 21.5717 27.8607 21.7863ZM4.56756 26.8424C4.64652 26.5778 4.92504 26.4273 5.18965 26.5063L8.19803 27.4039C8.46264 27.4829 8.61314 27.7614 8.53418 28.026C8.45522 28.2906 8.1767 28.4411 7.91209 28.3622L4.90371 27.4645C4.6391 27.3855 4.4886 27.107 4.56756 26.8424ZM4.76441 33.687C4.7167 33.415 4.89851 33.1558 5.1705 33.1081L7.93627 32.6229C8.20826 32.5752 8.46743 32.757 8.51515 33.029C8.56286 33.301 8.38105 33.5601 8.10906 33.6079L5.34329 34.0931C5.0713 34.1408 4.81213 33.959 4.76441 33.687ZM25.0468 30.1288C24.999 29.8569 25.1809 29.5977 25.4528 29.55L28.6796 28.9839C28.9516 28.9362 29.2107 29.118 29.2585 29.39C29.3062 29.662 29.1244 29.9211 28.8524 29.9689L25.6256 30.5349C25.3536 30.5826 25.0945 30.4008 25.0468 30.1288Z" fill="white"/>
<path d="M18.2763 53.7047L24.8436 47.7444L15.6244 49.3618L16.6371 53.2182C16.8277 53.9442 17.7205 54.2091 18.2763 53.7047Z" fill="#3D58FF"/>
<path d="M44.4345 11.622C43.9574 8.90211 41.3657 7.08401 38.6458 7.56116L26.3714 9.71447C23.6515 10.1916 21.8334 12.7833 22.3105 15.5032L23.1628 20.3611C23.6399 23.081 26.2316 24.8991 28.9515 24.4219L36.3791 23.1189C36.514 23.0952 36.6523 23.0995 36.7854 23.1315L41.8581 24.3494C42.558 24.5175 43.2009 23.9132 43.0765 23.2043L42.9582 22.5297C42.9051 22.227 43.1074 21.9385 43.4101 21.8854C44.9237 21.6199 45.9355 20.1776 45.6699 18.6641L44.4345 11.622Z" fill="#48C5A1"/>
<path d="M30.75 12.4016C30.6851 12.0313 30.9326 11.6785 31.3028 11.6135L40.0184 10.0846C40.3886 10.0196 40.7414 10.2671 40.8064 10.6374C40.8714 11.0076 40.6238 11.3605 40.2536 11.4254L31.5381 12.9544C31.1678 13.0193 30.815 12.7718 30.75 12.4016Z" fill="white"/>
<path fill-rule="evenodd" clip-rule="evenodd" d="M24.1766 9.02149L36.451 6.86819C39.0077 6.41966 41.4439 8.12868 41.8924 10.6854L43.1278 17.7274C43.3647 19.0778 42.4621 20.3646 41.1117 20.6015C40.6458 20.6832 40.3343 21.1272 40.4161 21.5931L40.5344 22.2676C40.6215 22.7639 40.1715 23.1869 39.6815 23.0692L34.6088 21.8513C34.4358 21.8097 34.256 21.8042 34.0807 21.8349L26.6531 23.138C24.0964 23.5865 21.6602 21.8775 21.2116 19.3208L20.3594 14.4629C19.9109 11.9062 21.6199 9.47001 24.1766 9.02149ZM36.3992 6.5727C39.1191 6.09555 41.7108 7.91364 42.1879 10.6335L43.4233 17.6756C43.6889 19.1892 42.6771 20.6314 41.1635 20.897C40.8608 20.9501 40.6585 21.2385 40.7116 21.5412L40.8299 22.2158C40.9543 22.9248 40.3114 23.529 39.6115 23.361L34.5388 22.143C34.4057 22.111 34.2674 22.1067 34.1325 22.1304L26.7049 23.4334C23.985 23.9106 21.3933 22.0925 20.9161 19.3726L20.0639 14.5148C19.5868 11.7949 21.4049 9.20316 24.1248 8.726L36.3992 6.5727Z" fill="white"/>
<path d="M35.5959 16.3888C35.531 16.0185 35.7785 15.6657 36.1488 15.6007L40.8417 14.7775C41.212 14.7125 41.5648 14.96 41.6298 15.3303C41.6947 15.7005 41.4472 16.0533 41.077 16.1183L36.384 16.9416C36.0137 17.0065 35.6609 16.759 35.5959 16.3888Z" fill="white"/>
</g>
</svg>
