<svg width="70" height="70" viewBox="0 0 70 70" fill="none" xmlns="http://www.w3.org/2000/svg">
<circle cx="35" cy="35" r="35" fill="#E8EFFF"/>
<mask id="mask0" mask-type="alpha" maskUnits="userSpaceOnUse" x="0" y="0" width="70" height="70">
<circle cx="35" cy="35" r="35" fill="#E8EFFF"/>
</mask>
<g mask="url(#mask0)">
<path d="M34.2605 16C33.3364 16.1869 32.5322 16.7831 32.0914 17.6403L17.3809 46.2445C16.879 47.2204 16.8728 48.3768 17.3642 49.3581L21.6655 57.948C22.2498 59.1149 23.4442 59.852 24.7507 59.852L44.5629 59.852C45.9056 59.852 47.1262 59.0741 47.6916 57.8581L51.6792 49.282C52.1161 48.3424 52.1063 47.2564 51.6524 46.3248L37.7066 17.7009C37.3485 16.966 36.7257 16.414 35.9852 16.1369L35.9852 43.6002C37.4729 43.9826 38.5722 45.3311 38.5722 46.936C38.5722 48.8382 37.0279 50.3802 35.1228 50.3802C33.2178 50.3802 31.6735 48.8382 31.6735 46.936C31.6735 45.3311 32.7728 43.9826 34.2605 43.6002L34.2605 16Z" fill="#3D58FF"/>
<path d="M20.463 65.0183C20.463 63.1161 22.0073 61.5741 23.9124 61.5741L46.3333 61.5741C48.2383 61.5741 49.7827 63.1161 49.7827 65.0183C49.7827 66.9205 48.2383 68.4626 46.3333 68.4626H23.9124C22.0073 68.4626 20.463 66.9205 20.463 65.0183Z" fill="#3D58FF"/>
<path d="M26.4537 73.5557C26.4537 71.6535 27.9981 70.1115 29.9031 70.1115H41.1136C43.0186 70.1115 44.5629 71.6535 44.5629 73.5557C44.5629 75.458 43.0186 77 41.1136 77H29.9031C27.9981 77 26.4537 75.458 26.4537 73.5557Z" fill="#3D58FF"/>
<path d="M32.2248 23.7089C32.6156 22.9489 33.3066 22.4042 34.1105 22.1892L34.1105 49.4859C32.6157 49.9226 31.5235 51.3016 31.5235 52.936C31.5235 54.9213 33.1352 56.5302 35.1228 56.5302C37.1105 56.5302 38.7222 54.9213 38.7222 52.936C38.7222 51.3016 37.63 49.9226 36.1352 49.4859L36.1352 22.3618C36.7509 22.6453 37.264 23.135 37.5717 23.7666L51.5176 52.3905C51.9516 53.2815 51.9611 54.3201 51.5432 55.2188L47.5555 63.7949C47.0148 64.9578 45.8473 65.702 44.5629 65.702H24.7507C23.5009 65.702 22.3584 64.9969 21.7996 63.8809L17.4983 55.291C17.0283 54.3524 17.0343 53.2465 17.5143 52.3131L32.2248 23.7089ZM20.613 71.0183C20.613 69.1992 22.09 67.7241 23.9124 67.7241H46.3333C48.1557 67.7241 49.6327 69.1992 49.6327 71.0183C49.6327 72.8375 48.1557 74.3126 46.3333 74.3126H23.9124C22.09 74.3126 20.613 72.8375 20.613 71.0183ZM26.6037 79.5557C26.6037 77.7366 28.0807 76.2615 29.9031 76.2615H41.1136C42.936 76.2615 44.4129 77.7366 44.4129 79.5557C44.4129 81.3749 42.936 82.85 41.1136 82.85H29.9031C28.0807 82.85 26.6037 81.3749 26.6037 79.5557Z" stroke="white" stroke-width="0.3"/>
<circle cx="68" cy="46" r="6" stroke="#47BB8E" stroke-width="4"/>
<path d="M11.344 29.9152L-6.73067 21.812L9.32424 10.2105L11.344 29.9152Z" fill="#ECAE00"/>
<circle cx="63.5" cy="1.5" r="1.5" fill="#BACAF0"/>
<circle cx="63.5" cy="15.5" r="1.5" fill="#BACAF0"/>
<circle cx="63.5" cy="8.5" r="1.5" fill="#3D58FF"/>
<circle cx="47.5" cy="1.5" r="1.5" fill="#BACAF0"/>
<circle cx="47.5" cy="15.5" r="1.5" fill="#ECAE00"/>
<circle cx="47.5" cy="8.5" r="1.5" fill="#BACAF0"/>
<circle cx="55.5" cy="1.5" r="1.5" fill="#BACAF0"/>
<circle cx="55.5" cy="15.5" r="1.5" fill="#BACAF0"/>
<circle cx="55.5" cy="8.5" r="1.5" fill="#BACAF0"/>
</g>
</svg>
