<svg width="48" height="48" viewBox="0 0 48 48" fill="none" xmlns="http://www.w3.org/2000/svg">
<mask id="mask0" mask-type="alpha" maskUnits="userSpaceOnUse" x="0" y="0" width="48" height="48">
<path d="M48 24C48 37.2548 37.2548 48 24 48C10.7452 48 0 37.2548 0 24C0 10.7452 10.7452 0 24 0C37.2548 0 48 10.7452 48 24Z" fill="#E8EFFF"/>
</mask>
<g mask="url(#mask0)">
<path d="M49 24C49 37.2548 38.2548 48 25 48C11.7452 48 1 37.2548 1 24C1 10.7452 11.7452 0 25 0C38.2548 0 49 10.7452 49 24Z" fill="#E8EFFF"/>
<rect x="7" y="29.2923" width="22" height="15" rx="2" transform="rotate(-3.36744 7 29.2923)" fill="#B7C8EC"/>
<rect x="16" y="17" width="35" height="23" rx="5" fill="#506FFF"/>
<rect x="16" y="21" width="34" height="4" fill="#6A84FF"/>
<path fill-rule="evenodd" clip-rule="evenodd" d="M16 29C22.6274 29 28 23.6274 28 17H21C18.2386 17 16 19.2386 16 22V29Z" fill="#3146CC"/>
<circle cx="14" cy="15" r="12" fill="#47BB8E"/>
<circle cx="15.5" cy="16.5" r="11.35" stroke="white" stroke-width="0.3"/>
<path d="M9.72949 13.9385H9.22168V16.2383C9.22168 16.541 9.15495 16.764 9.02148 16.9072C8.88802 17.0505 8.71387 17.1221 8.49902 17.1221C8.2679 17.1221 8.08887 17.0472 7.96191 16.8975C7.83496 16.7477 7.77148 16.528 7.77148 16.2383V10.7305C7.77148 10.418 7.84147 10.1917 7.98145 10.0518C8.12142 9.91178 8.34766 9.8418 8.66016 9.8418H11.0186C11.3441 9.8418 11.6224 9.85645 11.8535 9.88574C12.0846 9.91178 12.293 9.96712 12.4785 10.0518C12.7031 10.1462 12.9017 10.2812 13.0742 10.457C13.2467 10.6328 13.377 10.8379 13.4648 11.0723C13.556 11.3034 13.6016 11.5492 13.6016 11.8096C13.6016 12.3434 13.4502 12.7699 13.1475 13.0889C12.848 13.4079 12.3923 13.6341 11.7803 13.7676C12.0374 13.9043 12.2832 14.1061 12.5176 14.373C12.752 14.64 12.9603 14.9248 13.1426 15.2275C13.3281 15.527 13.4714 15.7988 13.5723 16.043C13.6764 16.2839 13.7285 16.4499 13.7285 16.541C13.7285 16.6354 13.6976 16.7298 13.6357 16.8242C13.5771 16.9154 13.4958 16.987 13.3916 17.0391C13.2874 17.0944 13.167 17.1221 13.0303 17.1221C12.8675 17.1221 12.7308 17.083 12.6201 17.0049C12.5094 16.93 12.4134 16.834 12.332 16.7168C12.2539 16.5996 12.1465 16.4271 12.0098 16.1992L11.4287 15.2324C11.2204 14.8776 11.0332 14.6074 10.8672 14.4219C10.7044 14.2363 10.5384 14.1094 10.3691 14.041C10.1999 13.9727 9.98665 13.9385 9.72949 13.9385ZM10.5596 10.9307H9.22168V12.8984H10.5205C10.8688 12.8984 11.1618 12.8691 11.3994 12.8105C11.637 12.7487 11.8177 12.6462 11.9414 12.5029C12.0684 12.3564 12.1318 12.1562 12.1318 11.9023C12.1318 11.7038 12.0814 11.5296 11.9805 11.3799C11.8796 11.2269 11.7396 11.113 11.5605 11.0381C11.3913 10.9665 11.0576 10.9307 10.5596 10.9307ZM16.1162 12.4492V12.6104C16.3669 12.3011 16.6273 12.0749 16.8975 11.9316C17.1676 11.7852 17.4736 11.7119 17.8154 11.7119C18.2256 11.7119 18.6032 11.8177 18.9482 12.0293C19.2933 12.2409 19.5651 12.5501 19.7637 12.957C19.9655 13.3639 20.0664 13.8457 20.0664 14.4023C20.0664 14.8125 20.0078 15.1901 19.8906 15.5352C19.7767 15.877 19.6188 16.165 19.417 16.3994C19.2152 16.6305 18.9759 16.8096 18.6992 16.9365C18.4258 17.0602 18.1312 17.1221 17.8154 17.1221C17.4346 17.1221 17.1139 17.0456 16.8535 16.8926C16.5964 16.7396 16.3506 16.515 16.1162 16.2188V18.2207C16.1162 18.8066 15.903 19.0996 15.4766 19.0996C15.2259 19.0996 15.0599 19.0231 14.9785 18.8701C14.8971 18.7204 14.8564 18.5007 14.8564 18.2109V12.459C14.8564 12.2051 14.9118 12.0163 15.0225 11.8926C15.1331 11.7656 15.2845 11.7021 15.4766 11.7021C15.6654 11.7021 15.8184 11.7673 15.9355 11.8975C16.056 12.0244 16.1162 12.2083 16.1162 12.4492ZM18.7285 14.3877C18.7285 14.0361 18.6748 13.735 18.5674 13.4844C18.46 13.2305 18.3102 13.0368 18.1182 12.9033C17.9294 12.7666 17.7194 12.6982 17.4883 12.6982C17.1204 12.6982 16.8096 12.8431 16.5557 13.1328C16.305 13.4225 16.1797 13.849 16.1797 14.4121C16.1797 14.9427 16.305 15.3561 16.5557 15.6523C16.8063 15.9453 17.1172 16.0918 17.4883 16.0918C17.7096 16.0918 17.9147 16.0283 18.1035 15.9014C18.2923 15.7712 18.4437 15.5775 18.5576 15.3203C18.6715 15.0632 18.7285 14.7523 18.7285 14.3877Z" fill="white"/>
<rect x="20" y="34" width="6" height="2" rx="1" fill="#3146CC"/>
<rect x="28" y="34" width="6" height="2" rx="1" fill="#3146CC"/>
<rect x="36" y="34" width="6" height="2" rx="1" fill="#3146CC"/>
<rect x="44" y="34" width="6" height="2" rx="1" fill="#3146CC"/>
<rect x="45" y="28" width="4" height="4" rx="1" fill="#A7B7FF"/>
</g>
</svg>
